<?xml version="1.0" encoding="UTF-8"?>
<svg xmlns="http://www.w3.org/2000/svg" xmlns:xlink="http://www.w3.org/1999/xlink" width="150pt" height="150pt" viewBox="0 0 150 150" version="1.1">
<g id="surface1">
<path style=" stroke:none;fill-rule:nonzero;fill:rgb(99.215686%,74.117647%,25.098039%);fill-opacity:1;" d="M 0 46.550781 L 150 46.550781 L 150 150 L 0 150 Z M 0 46.550781 "/>
<path style=" stroke:none;fill-rule:nonzero;fill:rgb(98.823529%,94.117647%,35.294118%);fill-opacity:1;" d="M 150 46.550781 L 0 46.550781 L 10.34375 0 L 139.65625 0 Z M 150 46.550781 "/>
<path style=" stroke:none;fill-rule:nonzero;fill:rgb(99.215686%,74.117647%,25.098039%);fill-opacity:1;" d="M 90.515625 46.550781 L 59.484375 46.550781 L 64.65625 0 L 85.34375 0 Z M 90.515625 46.550781 "/>
<path style=" stroke:none;fill-rule:nonzero;fill:rgb(98.823529%,94.117647%,35.294118%);fill-opacity:1;" d="M 59.484375 46.550781 L 90.515625 46.550781 L 90.515625 93.101562 L 59.484375 93.101562 Z M 59.484375 46.550781 "/>
<path style=" stroke:none;fill-rule:nonzero;fill:rgb(69.411765%,11.764706%,28.235294%);fill-opacity:1;" d="M 10.34375 129.308594 L 20.691406 129.308594 L 20.691406 139.65625 L 10.34375 139.65625 Z M 10.34375 129.308594 "/>
<path style=" stroke:none;fill-rule:nonzero;fill:rgb(69.411765%,11.764706%,28.235294%);fill-opacity:1;" d="M 46.550781 137.070312 L 41.378906 137.070312 L 41.378906 125.207031 L 44.722656 128.550781 C 45.75 129.542969 47.386719 129.515625 48.378906 128.488281 C 49.347656 127.488281 49.347656 125.898438 48.378906 124.894531 L 40.621094 117.136719 C 40.378906 116.894531 40.09375 116.703125 39.777344 116.574219 C 39.144531 116.3125 38.433594 116.3125 37.800781 116.574219 C 37.488281 116.703125 37.199219 116.894531 36.960938 117.136719 L 29.199219 124.894531 C 28.207031 125.921875 28.238281 127.558594 29.265625 128.550781 C 30.265625 129.519531 31.855469 129.519531 32.859375 128.550781 L 36.207031 125.207031 L 36.207031 137.070312 L 31.035156 137.070312 C 29.605469 137.070312 28.449219 138.226562 28.449219 139.65625 C 28.449219 141.082031 29.605469 142.242188 31.035156 142.242188 L 46.550781 142.242188 C 47.980469 142.242188 49.136719 141.082031 49.136719 139.65625 C 49.136719 138.226562 47.980469 137.070312 46.550781 137.070312 Z M 46.550781 137.070312 "/>
<path style=" stroke:none;fill-rule:nonzero;fill:rgb(69.411765%,11.764706%,28.235294%);fill-opacity:1;" d="M 121.550781 126.722656 L 126.722656 126.722656 L 126.722656 131.898438 L 121.550781 131.898438 Z M 121.550781 126.722656 "/>
<path style=" stroke:none;fill-rule:nonzero;fill:rgb(69.411765%,11.764706%,28.235294%);fill-opacity:1;" d="M 131.898438 126.722656 L 142.242188 126.722656 L 142.242188 131.898438 L 131.898438 131.898438 Z M 131.898438 126.722656 "/>
<path style=" stroke:none;fill-rule:nonzero;fill:rgb(69.411765%,11.764706%,28.235294%);fill-opacity:1;" d="M 121.550781 137.070312 L 142.242188 137.070312 L 142.242188 142.242188 L 121.550781 142.242188 Z M 121.550781 137.070312 "/>
</g>
</svg>
