<?xml version="1.0" encoding="UTF-8"?>
<svg xmlns="http://www.w3.org/2000/svg" xmlns:xlink="http://www.w3.org/1999/xlink" width="150pt" height="150pt" viewBox="0 0 150 150" version="1.1">
<g id="surface1">
<path style=" stroke:none;fill-rule:nonzero;fill:rgb(39.607843%,42.745098%,47.058824%);fill-opacity:1;" d="M 36.289062 110.082031 C 44.300781 110.082031 50.804688 116.585938 50.804688 124.597656 C 50.804688 132.628906 44.300781 139.113281 36.289062 139.113281 C 28.257812 139.113281 21.773438 132.628906 21.773438 124.597656 C 21.773438 116.585938 28.257812 110.082031 36.289062 110.082031 Z M 41.128906 124.597656 C 41.128906 121.933594 38.953125 119.757812 36.289062 119.757812 C 33.605469 119.757812 31.453125 121.933594 31.453125 124.597656 C 31.453125 127.28125 33.605469 129.433594 36.289062 129.433594 C 38.953125 129.433594 41.128906 127.28125 41.128906 124.597656 Z M 41.128906 124.597656 "/>
<path style=" stroke:none;fill-rule:nonzero;fill:rgb(80%,81.960784%,85.098039%);fill-opacity:1;" d="M 36.289062 119.757812 C 38.953125 119.757812 41.128906 121.933594 41.128906 124.597656 C 41.128906 127.28125 38.953125 129.433594 36.289062 129.433594 C 33.605469 129.433594 31.453125 127.28125 31.453125 124.597656 C 31.453125 121.933594 33.605469 119.757812 36.289062 119.757812 Z M 36.289062 119.757812 "/>
<path style=" stroke:none;fill-rule:nonzero;fill:rgb(80%,81.960784%,85.098039%);fill-opacity:1;" d="M 116.128906 119.757812 C 118.792969 119.757812 120.96875 121.933594 120.96875 124.597656 C 120.96875 127.28125 118.792969 129.433594 116.128906 129.433594 C 113.445312 129.433594 111.289062 127.28125 111.289062 124.597656 C 111.289062 121.933594 113.445312 119.757812 116.128906 119.757812 Z M 116.128906 119.757812 "/>
<path style=" stroke:none;fill-rule:nonzero;fill:rgb(39.607843%,42.745098%,47.058824%);fill-opacity:1;" d="M 101.613281 124.597656 C 101.613281 116.585938 108.097656 110.082031 116.128906 110.082031 C 124.140625 110.082031 130.644531 116.585938 130.644531 124.597656 C 130.644531 132.628906 124.140625 139.113281 116.128906 139.113281 C 108.097656 139.113281 101.613281 132.628906 101.613281 124.597656 Z M 120.96875 124.597656 C 120.96875 121.933594 118.792969 119.757812 116.128906 119.757812 C 113.445312 119.757812 111.289062 121.933594 111.289062 124.597656 C 111.289062 127.28125 113.445312 129.433594 116.128906 129.433594 C 118.792969 129.433594 120.96875 127.28125 120.96875 124.597656 Z M 120.96875 124.597656 "/>
<path style=" stroke:none;fill-rule:nonzero;fill:rgb(36.470588%,61.176471%,92.54902%);fill-opacity:1;" d="M 133.066406 54.433594 L 147.582031 85.886719 L 118.546875 85.886719 C 113.175781 85.886719 108.871094 81.554688 108.871094 76.210938 L 108.871094 54.433594 Z M 133.066406 54.433594 "/>
<path style=" stroke:none;fill-rule:nonzero;fill:rgb(62.745098%,83.137255%,40.784314%);fill-opacity:1;" d="M 4.839844 83.46875 L 96.773438 83.46875 L 96.773438 54.433594 L 108.871094 54.433594 L 108.871094 76.210938 C 108.871094 81.554688 113.175781 85.886719 118.546875 85.886719 L 147.582031 85.886719 L 147.582031 114.917969 L 150 114.917969 L 150 124.597656 L 130.644531 124.597656 C 130.644531 116.585938 124.140625 110.082031 116.128906 110.082031 C 108.097656 110.082031 101.613281 116.585938 101.613281 124.597656 L 50.804688 124.597656 C 50.804688 116.585938 44.300781 110.082031 36.289062 110.082031 C 28.257812 110.082031 21.773438 116.585938 21.773438 124.597656 L 4.839844 124.644531 L 4.839844 114.917969 L 0 114.917969 L 0 83.46875 Z M 4.839844 83.46875 "/>
<path style=" stroke:none;fill-rule:nonzero;fill:rgb(54.901961%,75.686275%,32.156863%);fill-opacity:1;" d="M 147.582031 114.917969 L 147.582031 85.886719 L 137.902344 85.886719 L 137.902344 124.597656 L 150 124.597656 L 150 114.917969 Z M 147.582031 114.917969 "/>
<path style=" stroke:none;fill-rule:nonzero;fill:rgb(29.019608%,53.72549%,86.27451%);fill-opacity:1;" d="M 147.582031 85.886719 L 133.066406 54.433594 L 123.386719 54.433594 L 137.902344 85.886719 Z M 147.582031 85.886719 "/>
<path style=" stroke:none;fill-rule:nonzero;fill:rgb(92.941176%,33.333333%,39.607843%);fill-opacity:1;" d="M 14.515625 47.175781 L 24.195312 47.175781 L 24.195312 54.433594 L 14.515625 54.433594 Z M 14.515625 47.175781 "/>
<path style=" stroke:none;fill-rule:nonzero;fill:rgb(92.941176%,33.333333%,39.607843%);fill-opacity:1;" d="M 75 10.886719 L 84.675781 10.886719 L 84.675781 22.984375 L 75 22.984375 Z M 75 10.886719 "/>
<path style=" stroke:none;fill-rule:nonzero;fill:rgb(100%,82.352941%,65.098039%);fill-opacity:1;" d="M 96.773438 54.433594 L 96.773438 83.46875 L 62.902344 83.46875 L 62.902344 10.886719 L 75 10.886719 L 75 22.984375 L 84.675781 22.984375 L 84.675781 10.886719 L 96.773438 10.886719 Z M 96.773438 54.433594 "/>
<path style=" stroke:none;fill-rule:nonzero;fill:rgb(96.862745%,76.078431%,57.254902%);fill-opacity:1;" d="M 48.386719 30.242188 L 62.902344 30.242188 L 62.902344 59.273438 L 33.871094 59.273438 L 33.871094 30.242188 Z M 48.386719 30.242188 "/>
<path style=" stroke:none;fill-rule:nonzero;fill:rgb(91.764706%,69.019608%,50.588235%);fill-opacity:1;" d="M 48.386719 59.273438 L 62.902344 59.273438 L 62.902344 83.46875 L 33.871094 83.46875 L 33.871094 59.273438 Z M 48.386719 59.273438 "/>
<path style=" stroke:none;fill-rule:nonzero;fill:rgb(100%,82.352941%,65.098039%);fill-opacity:1;" d="M 14.515625 47.175781 L 14.515625 54.433594 L 24.195312 54.433594 L 24.195312 47.175781 L 33.871094 47.175781 L 33.871094 83.46875 L 4.839844 83.46875 L 4.839844 47.175781 Z M 14.515625 47.175781 "/>
<path style=" stroke:none;fill-rule:nonzero;fill:rgb(90.196078%,91.372549%,92.941176%);fill-opacity:1;" d="M 145.160156 105.242188 L 147.582031 105.242188 L 147.582031 100.402344 L 145.160156 100.402344 C 143.824219 100.402344 142.742188 101.484375 142.742188 102.824219 C 142.742188 104.160156 143.824219 105.242188 145.160156 105.242188 Z M 145.160156 105.242188 "/>
<path style=" stroke:none;fill-rule:nonzero;fill:rgb(92.941176%,33.333333%,39.607843%);fill-opacity:1;" d="M 45.96875 30.242188 L 45.96875 35.082031 C 45.96875 36.417969 47.050781 37.5 48.386719 37.5 C 49.726562 37.5 50.804688 36.417969 50.804688 35.082031 L 50.804688 30.242188 Z M 45.96875 30.242188 "/>
<path style=" stroke:none;fill-rule:nonzero;fill:rgb(92.941176%,33.333333%,39.607843%);fill-opacity:1;" d="M 45.96875 66.53125 C 45.96875 67.871094 47.050781 68.953125 48.386719 68.953125 C 49.726562 68.953125 50.804688 67.871094 50.804688 66.53125 L 50.804688 59.273438 L 45.96875 59.273438 Z M 45.96875 66.53125 "/>
</g>
</svg>
