<?xml version="1.0" encoding="UTF-8"?>
<svg xmlns="http://www.w3.org/2000/svg" xmlns:xlink="http://www.w3.org/1999/xlink" width="150pt" height="150pt" viewBox="0 0 150 150" version="1.1">
<g id="surface1">
<path style=" stroke:none;fill-rule:nonzero;fill:rgb(82.745098%,51.764706%,23.921569%);fill-opacity:1;" d="M 18.75 77.34375 L 70.3125 21.09375 L 121.875 77.34375 Z M 18.75 77.34375 "/>
<path style=" stroke:none;fill-rule:nonzero;fill:rgb(93.72549%,93.333333%,86.27451%);fill-opacity:1;" d="M 21.09375 77.34375 L 119.53125 77.34375 L 119.53125 142.96875 L 21.09375 142.96875 Z M 21.09375 77.34375 "/>
<path style=" stroke:none;fill-rule:nonzero;fill:rgb(67.843137%,38.823529%,15.294118%);fill-opacity:1;" d="M 39.84375 25.78125 L 21.09375 25.78125 L 21.09375 65.625 L 39.84375 46.171875 Z M 39.84375 25.78125 "/>
<path style=" stroke:none;fill-rule:nonzero;fill:rgb(100%,84.313725%,50.980392%);fill-opacity:1;" d="M 16.40625 11.71875 L 44.53125 11.71875 L 44.53125 25.78125 L 16.40625 25.78125 Z M 16.40625 11.71875 "/>
<path style=" stroke:none;fill-rule:nonzero;fill:rgb(69.411765%,11.764706%,28.235294%);fill-opacity:1;" d="M 128.90625 72.65625 L 70.457031 11.71875 L 11.71875 72.65625 L 18.75 79.6875 L 70.3125 25.78125 L 121.875 79.6875 Z M 128.90625 72.65625 "/>
<path style=" stroke:none;fill-rule:nonzero;fill:rgb(97.647059%,73.333333%,29.411765%);fill-opacity:1;" d="M 23.4375 32.8125 L 32.8125 32.8125 L 32.8125 37.5 L 23.4375 37.5 Z M 23.4375 32.8125 "/>
<path style=" stroke:none;fill-rule:nonzero;fill:rgb(97.647059%,73.333333%,29.411765%);fill-opacity:1;" d="M 23.4375 42.1875 L 32.8125 42.1875 L 32.8125 46.875 L 23.4375 46.875 Z M 23.4375 42.1875 "/>
<path style=" stroke:none;fill-rule:nonzero;fill:rgb(40%,20.392157%,18.039216%);fill-opacity:1;" d="M 35.15625 105.46875 L 58.59375 105.46875 L 58.59375 142.96875 L 35.15625 142.96875 Z M 35.15625 105.46875 "/>
<path style=" stroke:none;fill-rule:nonzero;fill:rgb(95.686275%,95.686275%,90.196078%);fill-opacity:1;" d="M 46.875 121.875 L 51.5625 121.875 L 51.5625 126.5625 L 46.875 126.5625 Z M 46.875 121.875 "/>
<path style=" stroke:none;fill-rule:nonzero;fill:rgb(31.372549%,70.588235%,97.254902%);fill-opacity:1;" d="M 72.65625 91.40625 L 86.71875 91.40625 L 86.71875 114.84375 L 72.65625 114.84375 Z M 72.65625 91.40625 "/>
<path style=" stroke:none;fill-rule:nonzero;fill:rgb(17.647059%,45.882353%,73.333333%);fill-opacity:1;" d="M 86.71875 91.40625 L 100.78125 91.40625 L 100.78125 114.84375 L 86.71875 114.84375 Z M 86.71875 91.40625 "/>
<path style=" stroke:none;fill-rule:nonzero;fill:rgb(31.372549%,70.588235%,97.254902%);fill-opacity:1;" d="M 133.59375 16.40625 C 131.003906 16.40625 128.90625 18.503906 128.90625 21.09375 L 128.90625 16.40625 C 128.90625 11.230469 124.707031 7.03125 119.53125 7.03125 C 114.355469 7.03125 110.15625 11.230469 110.15625 16.40625 L 110.15625 21.09375 C 110.15625 18.503906 108.058594 16.40625 105.46875 16.40625 C 102.878906 16.40625 100.78125 18.503906 100.78125 21.09375 L 100.78125 30.46875 L 138.28125 30.46875 L 138.28125 21.09375 C 138.28125 18.503906 136.183594 16.40625 133.59375 16.40625 Z M 133.59375 16.40625 "/>
<path style=" stroke:none;fill-rule:nonzero;fill:rgb(67.843137%,38.823529%,15.294118%);fill-opacity:1;" d="M 58.59375 124.21875 L 119.53125 124.21875 L 119.53125 142.96875 L 58.59375 142.96875 Z M 58.59375 124.21875 "/>
<path style=" stroke:none;fill-rule:nonzero;fill:rgb(67.843137%,38.823529%,15.294118%);fill-opacity:1;" d="M 21.09375 124.21875 L 35.15625 124.21875 L 35.15625 142.96875 L 21.09375 142.96875 Z M 21.09375 124.21875 "/>
<path style=" stroke:none;fill-rule:nonzero;fill:rgb(82.745098%,51.764706%,23.921569%);fill-opacity:1;" d="M 58.59375 124.21875 L 77.34375 124.21875 L 77.34375 133.59375 L 58.59375 133.59375 Z M 58.59375 124.21875 "/>
<path style=" stroke:none;fill-rule:nonzero;fill:rgb(100%,84.313725%,50.980392%);fill-opacity:1;" d="M 100.78125 124.21875 L 119.53125 124.21875 L 119.53125 133.59375 L 100.78125 133.59375 Z M 100.78125 124.21875 "/>
<path style=" stroke:none;fill-rule:nonzero;fill:rgb(67.843137%,38.823529%,15.294118%);fill-opacity:1;" d="M 77.34375 124.21875 L 100.78125 124.21875 L 100.78125 133.59375 L 77.34375 133.59375 Z M 77.34375 124.21875 "/>
<path style=" stroke:none;fill-rule:nonzero;fill:rgb(100%,84.313725%,50.980392%);fill-opacity:1;" d="M 70.3125 133.59375 L 89.0625 133.59375 L 89.0625 142.96875 L 70.3125 142.96875 Z M 70.3125 133.59375 "/>
<path style=" stroke:none;fill-rule:nonzero;fill:rgb(82.745098%,51.764706%,23.921569%);fill-opacity:1;" d="M 89.0625 133.59375 L 107.8125 133.59375 L 107.8125 142.96875 L 89.0625 142.96875 Z M 89.0625 133.59375 "/>
<path style=" stroke:none;fill-rule:nonzero;fill:rgb(67.843137%,38.823529%,15.294118%);fill-opacity:1;" d="M 58.59375 133.59375 L 70.3125 133.59375 L 70.3125 142.96875 L 58.59375 142.96875 Z M 58.59375 133.59375 "/>
<path style=" stroke:none;fill-rule:nonzero;fill:rgb(67.843137%,38.823529%,15.294118%);fill-opacity:1;" d="M 107.8125 133.59375 L 119.53125 133.59375 L 119.53125 142.96875 L 107.8125 142.96875 Z M 107.8125 133.59375 "/>
<path style=" stroke:none;fill-rule:nonzero;fill:rgb(82.745098%,51.764706%,23.921569%);fill-opacity:1;" d="M 21.09375 124.21875 L 35.15625 124.21875 L 35.15625 133.59375 L 21.09375 133.59375 Z M 21.09375 124.21875 "/>
<path style=" stroke:none;fill-rule:nonzero;fill:rgb(17.647059%,45.882353%,73.333333%);fill-opacity:1;" d="M 35.15625 91.40625 L 58.59375 91.40625 L 58.59375 105.46875 L 35.15625 105.46875 Z M 35.15625 91.40625 "/>
</g>
</svg>
